<svg xmlns="http://www.w3.org/2000/svg" version="1.1" xmlns:xlink="http://www.w3.org/1999/xlink" xmlns:svgjs="http://svgjs.dev/svgjs" width="1000" height="386" viewBox="0 0 1000 386"><g transform="matrix(1,0,0,1,-0.6056348047761162,-0.016848862224350114)"><svg viewBox="0 0 396 153" data-background-color="#ffffff" preserveAspectRatio="xMidYMid meet" height="386" width="1000" xmlns="http://www.w3.org/2000/svg" xmlns:xlink="http://www.w3.org/1999/xlink"><g id="tight-bounds" transform="matrix(1,0,0,1,0.24008861730862918,0.006743078262928748)"><svg viewBox="0 0 395.52 152.98641651917404" height="152.98641651917404" width="395.52"><g><svg viewBox="0 0 395.52 152.98641651917404" height="152.98641651917404" width="395.52"><g><svg viewBox="0 0 395.52 152.98641651917404" height="152.98641651917404" width="395.52"><g id="textblocktransform"><svg viewBox="0 0 395.52 152.98641651917404" height="152.98641651917404" width="395.52" id="textblock"><g><svg viewBox="0 0 395.52 152.98641651917404" height="152.98641651917404" width="395.52"><path d="M394.594 32.813C392.735 16.933 387.435 12.518 387.435 12.518 371.165-3.838 350.86-0.313 332.619 2.037 300.414 2.133 268.339 5.626 236.208 7.5 168.767 7.786 100.749 3.085 33.643 14.678 27.339 18.235-6.54 15.376 1.121 34.845 3.129 42.944 10.456 51.932 10.232 59.364 11.236 60.666 12.631 57.681 13.226 59.554 15.309 64.604 18.711 62.222 21.501 65.208 17.614 73.179 20.403 79.817 23.062 86.773 18.377 88.583 12.371 87.725 9.675 93.728 9.396 98.079 7.89 97.253 6.235 97.063 5.026 96.936 2.59 97.412 2.999 98.778 4.394 103.447-1.594 106.146 2.162 110.72-0.422 115.674 3.948 119.962 3.353 125.329 3.278 126.409 3.687 127.33 4.338 127.584 7.22 128.95 3.018 131.618 3.464 134.508 33.029 154.262 65.104 140.606 95.394 149.689 103.259 143.337 97.346 151.944 100.489 150.61 102.943 149.054 104.728 155.501 107.499 151.849 107.927 150.801 107.276 148.323 108.8 148.8 109.6 149.054 110.307 148.99 110.418 147.529 110.586 145.338 109.117 146.704 108.726 145.56 112.947 139.78 111.906 153.532 115.866 152.96 115.68 151.277 114.528 148.863 116.889 149.181 119.232 146.767 119.306 144.766 121.389 150.197 121.463 151.372 121.835 152.198 122.43 152.77 128.938 146.862 135.409 154.866 142.233 152.198 146.417 149.276 150.433 153.786 154.672 152.674 156.16 151.785 157.666 150.197 159.098 152.865 176.632 153.437 195.319 151.055 211.943 152.96 256.364 149.403 303.836 154.421 350.674 149.721 361.719 147.91 373.192 145.338 383.958 143.273 383.958 143.273 392.679 137.62 392.679 112.212S394.538 89.98 394.817 69.749C395.096 49.518 396.398 48.693 394.538 32.813Z" opacity="1" fill="#6936f5" data-fill-palette-color="tertiary"></path><g transform="matrix(1,0,0,1,55.76832,26.230666666666668)"><svg width="283.98335999999995" viewBox="2.6 -37.55 141.24 50" height="100.5250831858407" data-palette-color="#ffffff"><path d="M5.75-32.25L2.6-32.25 2.6-35 13-35Q19.15-35 22.13-32.9 25.1-30.8 25.1-24.98 25.1-19.15 22.03-16.38 18.95-13.6 13-13.6L13-13.6 9.15-13.6 9.15-2.75 12.7-2.75 12.7 0 2.6 0 2.6-2.75 5.75-2.75 5.75-32.25ZM12.75-32.25L12.75-32.25 9.15-32.25 9.15-16.35 12.75-16.35Q17.25-16.35 19.48-18.32 21.7-20.3 21.7-24.78 21.7-29.25 19.5-30.75 17.3-32.25 12.75-32.25ZM31.45-35L28.1-35 28.1-37.5 34.7-37.5 34.7-2.5 38.45-2.5 38.45 0 28.35 0 28.35-2.5 31.45-2.5 31.45-35ZM47.55 0.2L47.55 0.2Q40.9 0.2 40.5-5.05L40.5-5.05Q40.45-5.4 40.45-5.75L40.45-5.75Q40.45-9.95 45.5-11.35L45.5-11.35Q48.3-12.05 56.3-12.95L56.3-12.95 56.3-16.8Q56.3-22.25 50.6-22.25L50.6-22.25Q46.5-22.2 41.9-20.35L41.9-20.35 41.05-22.5 41.55-22.7Q45.45-24.4 47.5-24.75 49.55-25.1 50.5-25.13 51.45-25.15 52.32-25.1 53.2-25.05 54.6-24.65 56-24.25 57.02-23.53 58.05-22.8 58.8-21.35 59.55-19.9 59.55-17.9L59.55-17.9 59.55-2.5 63.4-2.5 63.4 0 56.8 0 56.3-1.9Q51.8 0.2 47.55 0.2ZM48.45-2.1L48.45-2.1Q52.25-2.1 56.3-3.8L56.3-3.8 56.3-10.95Q48.8-10.7 46.6-9.95L46.6-9.95Q44.9-9.5 44.2-8.33 43.5-7.15 43.5-6.45 43.5-5.75 43.5-5.5L43.5-5.5Q43.65-3.7 45.05-2.9 46.45-2.1 48.45-2.1ZM77.39-22.3L77.39-22.3Q73.14-22.3 70.52-19.48 67.89-16.65 67.89-11.55L67.89-11.55Q67.89-2.7 76.14-2.7L76.14-2.7Q79.34-2.7 81.49-3.23 83.64-3.75 83.84-3.9L83.84-3.9 84.54-1.55Q83.39-0.8 80.74-0.3 78.09 0.2 75.94 0.2 73.79 0.2 72.04-0.25 70.29-0.7 68.52-1.85 66.74-3 65.69-5.48 64.64-7.95 64.64-11.5L64.64-11.5Q64.64-18.05 67.99-21.4L67.99-21.4Q71.74-25.25 77.44-25.25L77.44-25.25Q79.24-25.25 81.27-24.78 83.29-24.3 84.39-23.3L84.39-23.3 84.39-16.75 81.94-16.4 81.69-21.65Q79.64-22.3 77.39-22.3ZM91.59-22.5L88.24-22.5 88.24-25 94.84-25 94.84-2.5 98.59-2.5 98.59 0 88.49 0 88.49-2.5 91.59-2.5 91.59-22.5ZM93.14-31.7Q92.14-31.7 91.59-32.33 91.04-32.95 91.04-33.98 91.04-35 91.62-35.63 92.19-36.25 93.19-36.25 94.19-36.25 94.82-35.63 95.44-35 95.44-33.93 95.44-32.85 94.79-32.27 94.14-31.7 93.14-31.7ZM103.09-31.05Q103.09-34.5 105.34-36.02 107.59-37.55 110.09-37.55 112.59-37.55 113.99-37L113.99-37 113.84-34.65Q112.64-34.8 111.76-34.8 110.89-34.8 110.06-34.63 109.24-34.45 108.34-34L108.34-34Q106.34-32.9 106.34-29.9L106.34-29.9 106.34-25 112.39-25 112.39-22.1 106.34-22.1 106.34-2.5 110.59-2.5 110.59 0 99.99 0 99.99-2.5 103.09-2.5 103.09-22.1 100.54-22.1 100.94-24.5 103.09-24.95 103.09-31.05ZM137.39-22.5L134.64-22.5 134.64-25 143.84-25 143.84-22.5 140.84-22.5 130.89 0 129.24 9.95 133.44 9.95 133.44 12.45 122.89 12.45 122.89 9.95 125.99 9.95 127.54 0 126.69 0 118.59-22.5 115.19-22.5 115.19-25 125.74-25 125.74-22.5 122.29-22.5 128.89-2.35 137.39-22.5Z" opacity="1" transform="matrix(1,0,0,1,0,0)" fill="#ffffff" class="wordmark-text-0" data-fill-palette-color="quaternary" id="text-0"></path></svg></g></svg></g></svg></g></svg></g><g></g></svg></g><defs></defs></svg><rect width="395.52" height="152.98641651917404" fill="none" stroke="none" visibility="hidden"></rect></g></svg></g></svg>